<svg width="180" height="258" viewBox="128 88 180 258" fill="none" xmlns="http://www.w3.org/2000/svg">
<path d="M300.834 162.765V196.198C300.834 214.827 298.754 228.004 294.518 235.629L294.517 235.628C289.176 245.463 280.197 253.586 267.627 260.011L267.217 260.22L266.975 259.828L256.103 242.275L255.77 241.738L256.369 241.538C263.385 239.2 269.129 235.58 273.229 229.861C277.267 224.23 279.744 216.515 280.217 205.87H261.063V162.765H300.834ZM265.695 139.484L265.108 139.381L238.437 134.677V184.916H182.549C172.156 184.916 168.532 186.074 165.488 188.556C163.273 190.78 161.88 194.123 161.88 197.466C161.88 204.714 165.448 210.616 170.5 215.734C178.311 212.887 186.958 211.465 195.599 211.465C213.961 211.465 227.214 216.641 235.882 224.61C244.55 232.581 248.586 243.304 248.586 254.303C248.586 265.713 245.364 274.893 239.336 282.171C233.314 289.441 224.524 294.775 213.449 298.563L213.017 298.712L212.831 298.295L204.421 279.445L204.2 278.949L204.713 278.77C210.48 276.751 215.694 274.099 219.462 270.402C223.215 266.72 225.547 261.99 225.547 255.753C225.547 248.617 223.269 242.905 218.34 238.962C213.39 235.002 205.692 232.764 194.729 232.764C183.207 232.764 174.346 235.645 168.374 240.729C162.412 245.803 159.271 253.122 159.271 262.133C159.271 271.332 160.99 279.5 166.984 288.868C172.994 298.261 183.312 308.877 200.554 322.932L201.003 323.298L200.576 323.688L184.151 338.726L183.819 339.029L183.481 338.73C152.735 311.465 135.651 289.628 135.651 260.973C135.651 246.512 141.652 235.183 151.095 226.725C144.505 219.714 138.551 209.578 138.551 196.596C138.551 186.024 142.375 178.334 148.596 173.298C156.84 166.527 166.833 163.617 183.999 163.617H214.527V127.189L177.142 119.079L176.748 118.993V97.6621L177.36 97.8037L265.308 118.103L265.695 118.191V139.484Z" fill="currentColor" stroke="currentColor" stroke-width="1.2"/>
</svg>
